<svg xmlns="http://www.w3.org/2000/svg" xmlns:xlink="http://www.w3.org/1999/xlink" width="18" height="14" viewBox="0 0 18 14">
    <defs>
        <path id="f566s5xlga" d="M2.443 13.5h13.284c1.459 0 2.273-.771 2.273-2.25v-8.5C18 1.272 17.169.5 15.557.5H2.273C.814.5 0 1.255 0 2.75v8.5c0 1.495.831 2.25 2.443 2.25zm5.582-5.95L1.544 1.634c.22-.126.526-.204.882-.204h13.165c.373 0 .679.078.916.236L10.06 7.55c-.356.33-.695.456-1.018.456-.322-.015-.661-.141-1.017-.456zm-7.041 3.7V2.765c0-.141.017-.267.034-.362l5.14 4.659-5.123 4.627c-.034-.157-.051-.283-.051-.44zm16.049-8.5v8.484c0 .141-.017.267-.034.377l-5.056-4.58 5.073-4.61c0 .125.017.22.017.33zM2.426 12.588c-.322 0-.61-.047-.831-.173l5.242-4.753.61.567c.544.487 1.07.676 1.595.676.526 0 1.052-.189 1.595-.676l.61-.567 5.21 4.722c-.238.125-.527.188-.866.188l-13.165.016z"/>
    </defs>
    <g fill="none" fill-rule="evenodd">
        <mask id="a1i9lhmd2b" fill="#fff">
            <use xlink:href="#f566s5xlga"/>
        </mask>
        <path fill="#949494" d="M-2.118 -0.5L19.059 -0.5 19.059 14.5 -2.118 14.5z" mask="url(#a1i9lhmd2b)"/>
    </g>
</svg>
